<svg xmlns="http://www.w3.org/2000/svg" width="1600" height="830" viewBox="0 0 1600 830">
<rect width="100%" height="100%" fill="#f6f8fa" />
<text x="30" y="24" font-size="20" font-family="monospace" font-weight="bold" fill="#1f2328">Leaf Event Activity Summary (top 10)</text>
<g transform="translate(30,50)">
<rect x="0" y="0" width="760" height="360" rx="10" fill="#ffffff" stroke="#d0d7de" />
<text x="20" y="28" font-size="18" font-family="monospace" font-weight="bold" fill="#1f2328">Leaf CPU Top 10 by Count</text>
<text x="20" y="72" font-size="12" font-family="monospace" fill="#24292f">aten::as_strided</text>
<rect x="300" y="60" width="430" height="16" fill="#0969da" rx="4" />
<text x="740" y="72" font-size="11" font-family="monospace" fill="#57606a">count=1465 total_us=10298.9 avg_us=7.0</text>
<text x="20" y="100" font-size="12" font-family="monospace" fill="#24292f">cuLaunchKernel</text>
<rect x="300" y="88" width="426" height="16" fill="#0969da" rx="4" />
<text x="740" y="100" font-size="11" font-family="monospace" fill="#57606a">count=1453 total_us=5875.4 avg_us=4.0</text>
<text x="20" y="128" font-size="12" font-family="monospace" fill="#24292f">aten::empty</text>
<rect x="300" y="116" width="369" height="16" fill="#0969da" rx="4" />
<text x="740" y="128" font-size="11" font-family="monospace" fill="#57606a">count=1260 total_us=11186.3 avg_us=8.9</text>
<text x="20" y="156" font-size="12" font-family="monospace" fill="#24292f">cudaLaunchKernel</text>
<rect x="300" y="144" width="326" height="16" fill="#0969da" rx="4" />
<text x="740" y="156" font-size="11" font-family="monospace" fill="#57606a">count=1112 total_us=4852.2 avg_us=4.4</text>
<text x="20" y="184" font-size="12" font-family="monospace" fill="#24292f">cudaDeviceGetAttribute</text>
<rect x="300" y="172" width="291" height="16" fill="#0969da" rx="4" />
<text x="740" y="184" font-size="11" font-family="monospace" fill="#57606a">count=993 total_us=245.5 avg_us=0.2</text>
<text x="20" y="212" font-size="12" font-family="monospace" fill="#24292f">aten::view</text>
<rect x="300" y="200" width="282" height="16" fill="#0969da" rx="4" />
<text x="740" y="212" font-size="11" font-family="monospace" fill="#57606a">count=963 total_us=6086.7 avg_us=6.3</text>
<text x="20" y="240" font-size="12" font-family="monospace" fill="#24292f">cudaMemsetAsync</text>
<rect x="300" y="228" width="216" height="16" fill="#0969da" rx="4" />
<text x="740" y="240" font-size="11" font-family="monospace" fill="#57606a">count=737 total_us=129.1 avg_us=0.2</text>
<text x="20" y="268" font-size="12" font-family="monospace" fill="#24292f">aten::empty_strided</text>
<rect x="300" y="256" width="45" height="16" fill="#0969da" rx="4" />
<text x="740" y="268" font-size="11" font-family="monospace" fill="#57606a">count=154 total_us=2013.3 avg_us=13.1</text>
<text x="20" y="296" font-size="12" font-family="monospace" fill="#24292f">cudaFuncSetAttribute</text>
<rect x="300" y="284" width="41" height="16" fill="#0969da" rx="4" />
<text x="740" y="296" font-size="11" font-family="monospace" fill="#57606a">count=140 total_us=184.1 avg_us=1.3</text>
<text x="20" y="324" font-size="12" font-family="monospace" fill="#24292f">aten::resize_</text>
<rect x="300" y="312" width="18" height="16" fill="#0969da" rx="4" />
<text x="740" y="324" font-size="11" font-family="monospace" fill="#57606a">count=63 total_us=506.0 avg_us=8.0</text>
</g>
<g transform="translate(810,50)">
<rect x="0" y="0" width="760" height="360" rx="10" fill="#ffffff" stroke="#d0d7de" />
<text x="20" y="28" font-size="18" font-family="monospace" font-weight="bold" fill="#1f2328">Leaf CPU Top 10 by Total Time (us)</text>
<text x="20" y="72" font-size="12" font-family="monospace" fill="#24292f">aten::empty</text>
<rect x="300" y="60" width="430" height="16" fill="#1a7f37" rx="4" />
<text x="740" y="72" font-size="11" font-family="monospace" fill="#57606a">total_us=11186.3 count=1260 avg_us=8.9</text>
<text x="20" y="100" font-size="12" font-family="monospace" fill="#24292f">aten::as_strided</text>
<rect x="300" y="88" width="395" height="16" fill="#1a7f37" rx="4" />
<text x="740" y="100" font-size="11" font-family="monospace" fill="#57606a">total_us=10298.9 count=1465 avg_us=7.0</text>
<text x="20" y="128" font-size="12" font-family="monospace" fill="#24292f">aten::view</text>
<rect x="300" y="116" width="233" height="16" fill="#1a7f37" rx="4" />
<text x="740" y="128" font-size="11" font-family="monospace" fill="#57606a">total_us=6086.7 count=963 avg_us=6.3</text>
<text x="20" y="156" font-size="12" font-family="monospace" fill="#24292f">cuLaunchKernel</text>
<rect x="300" y="144" width="225" height="16" fill="#1a7f37" rx="4" />
<text x="740" y="156" font-size="11" font-family="monospace" fill="#57606a">total_us=5875.4 count=1453 avg_us=4.0</text>
<text x="20" y="184" font-size="12" font-family="monospace" fill="#24292f">cudaLaunchKernel</text>
<rect x="300" y="172" width="186" height="16" fill="#1a7f37" rx="4" />
<text x="740" y="184" font-size="11" font-family="monospace" fill="#57606a">total_us=4852.2 count=1112 avg_us=4.4</text>
<text x="20" y="212" font-size="12" font-family="monospace" fill="#24292f">aten::empty_strided</text>
<rect x="300" y="200" width="77" height="16" fill="#1a7f37" rx="4" />
<text x="740" y="212" font-size="11" font-family="monospace" fill="#57606a">total_us=2013.3 count=154 avg_us=13.1</text>
<text x="20" y="240" font-size="12" font-family="monospace" fill="#24292f">TorchDynamo Cache Lookup</text>
<rect x="300" y="228" width="39" height="16" fill="#1a7f37" rx="4" />
<text x="740" y="240" font-size="11" font-family="monospace" fill="#57606a">total_us=1035.5 count=1 avg_us=1035.5</text>
<text x="20" y="268" font-size="12" font-family="monospace" fill="#24292f">aten::resize_</text>
<rect x="300" y="256" width="19" height="16" fill="#1a7f37" rx="4" />
<text x="740" y="268" font-size="11" font-family="monospace" fill="#57606a">total_us=506.0 count=63 avg_us=8.0</text>
<text x="20" y="296" font-size="12" font-family="monospace" fill="#24292f">aten::_nnpack_available</text>
<rect x="300" y="284" width="10" height="16" fill="#1a7f37" rx="4" />
<text x="740" y="296" font-size="11" font-family="monospace" fill="#57606a">total_us=279.9 count=51 avg_us=5.5</text>
<text x="20" y="324" font-size="12" font-family="monospace" fill="#24292f">cudaDeviceGetAttribute</text>
<rect x="300" y="312" width="9" height="16" fill="#1a7f37" rx="4" />
<text x="740" y="324" font-size="11" font-family="monospace" fill="#57606a">total_us=245.5 count=993 avg_us=0.2</text>
</g>
<g transform="translate(30,430)">
<rect x="0" y="0" width="760" height="360" rx="10" fill="#ffffff" stroke="#d0d7de" />
<text x="20" y="28" font-size="18" font-family="monospace" font-weight="bold" fill="#1f2328">True GPU Top 10 by Count</text>
<text x="20" y="72" font-size="12" font-family="monospace" fill="#24292f">void cutlass::Kernel2&lt;cutlass_80_wmma_ten...</text>
<rect x="300" y="60" width="430" height="16" fill="#bf8700" rx="4" />
<text x="740" y="72" font-size="11" font-family="monospace" fill="#57606a">count=551 total_us=6246.7 avg_us=11.3</text>
<text x="20" y="100" font-size="12" font-family="monospace" fill="#24292f">void cutlass::Kernel2&lt;cutlass_80_wmma_ten...</text>
<rect x="300" y="88" width="254" height="16" fill="#bf8700" rx="4" />
<text x="740" y="100" font-size="11" font-family="monospace" fill="#57606a">count=326 total_us=2650.8 avg_us=8.1</text>
<text x="20" y="128" font-size="12" font-family="monospace" fill="#24292f">void cublasLt::splitKreduce_kernel&lt;32, 16...</text>
<rect x="300" y="116" width="138" height="16" fill="#bf8700" rx="4" />
<text x="740" y="128" font-size="11" font-family="monospace" fill="#57606a">count=178 total_us=259.9 avg_us=1.5</text>
<text x="20" y="156" font-size="12" font-family="monospace" fill="#24292f">void pytorch_flash::flash_fwd_kernel&lt;Flas...</text>
<rect x="300" y="144" width="109" height="16" fill="#bf8700" rx="4" />
<text x="740" y="156" font-size="11" font-family="monospace" fill="#57606a">count=140 total_us=1015.3 avg_us=7.3</text>
<text x="20" y="184" font-size="12" font-family="monospace" fill="#24292f">void at::native::elementwise_kernel&lt;128, ...</text>
<rect x="300" y="172" width="105" height="16" fill="#bf8700" rx="4" />
<text x="740" y="184" font-size="11" font-family="monospace" fill="#57606a">count=135 total_us=1055.7 avg_us=7.8</text>
<text x="20" y="212" font-size="12" font-family="monospace" fill="#24292f">void cublasLt::splitKreduce_kernel&lt;32, 16...</text>
<rect x="300" y="200" width="88" height="16" fill="#bf8700" rx="4" />
<text x="740" y="212" font-size="11" font-family="monospace" fill="#57606a">count=114 total_us=206.8 avg_us=1.8</text>
<text x="20" y="240" font-size="12" font-family="monospace" fill="#24292f">void at::native::vectorized_elementwise_k...</text>
<rect x="300" y="228" width="74" height="16" fill="#bf8700" rx="4" />
<text x="740" y="240" font-size="11" font-family="monospace" fill="#57606a">count=95 total_us=88.7 avg_us=0.9</text>
<text x="20" y="268" font-size="12" font-family="monospace" fill="#24292f">void at::native::(anonymous namespace)::v...</text>
<rect x="300" y="256" width="70" height="16" fill="#bf8700" rx="4" />
<text x="740" y="268" font-size="11" font-family="monospace" fill="#57606a">count=90 total_us=273.9 avg_us=3.0</text>
<text x="20" y="296" font-size="12" font-family="monospace" fill="#24292f">void at::native::vectorized_elementwise_k...</text>
<rect x="300" y="284" width="70" height="16" fill="#bf8700" rx="4" />
<text x="740" y="296" font-size="11" font-family="monospace" fill="#57606a">count=90 total_us=101.2 avg_us=1.1</text>
<text x="20" y="324" font-size="12" font-family="monospace" fill="#24292f">void cutlass::Kernel2&lt;cutlass_80_wmma_ten...</text>
<rect x="300" y="312" width="51" height="16" fill="#bf8700" rx="4" />
<text x="740" y="324" font-size="11" font-family="monospace" fill="#57606a">count=66 total_us=985.7 avg_us=14.9</text>
</g>
<g transform="translate(810,430)">
<rect x="0" y="0" width="760" height="360" rx="10" fill="#ffffff" stroke="#d0d7de" />
<text x="20" y="28" font-size="18" font-family="monospace" font-weight="bold" fill="#1f2328">True GPU Top 10 by Total Time (us)</text>
<text x="20" y="72" font-size="12" font-family="monospace" fill="#24292f">void cutlass::Kernel2&lt;cutlass_80_wmma_ten...</text>
<rect x="300" y="60" width="430" height="16" fill="#8250df" rx="4" />
<text x="740" y="72" font-size="11" font-family="monospace" fill="#57606a">total_us=6246.7 count=551 avg_us=11.3</text>
<text x="20" y="100" font-size="12" font-family="monospace" fill="#24292f">void cutlass::Kernel2&lt;cutlass_80_wmma_ten...</text>
<rect x="300" y="88" width="182" height="16" fill="#8250df" rx="4" />
<text x="740" y="100" font-size="11" font-family="monospace" fill="#57606a">total_us=2650.8 count=326 avg_us=8.1</text>
<text x="20" y="128" font-size="12" font-family="monospace" fill="#24292f">void at::native::elementwise_kernel&lt;128, ...</text>
<rect x="300" y="116" width="72" height="16" fill="#8250df" rx="4" />
<text x="740" y="128" font-size="11" font-family="monospace" fill="#57606a">total_us=1055.7 count=135 avg_us=7.8</text>
<text x="20" y="156" font-size="12" font-family="monospace" fill="#24292f">void pytorch_flash::flash_fwd_kernel&lt;Flas...</text>
<rect x="300" y="144" width="69" height="16" fill="#8250df" rx="4" />
<text x="740" y="156" font-size="11" font-family="monospace" fill="#57606a">total_us=1015.3 count=140 avg_us=7.3</text>
<text x="20" y="184" font-size="12" font-family="monospace" fill="#24292f">void cutlass::Kernel2&lt;cutlass_80_wmma_ten...</text>
<rect x="300" y="172" width="67" height="16" fill="#8250df" rx="4" />
<text x="740" y="184" font-size="11" font-family="monospace" fill="#57606a">total_us=985.7 count=66 avg_us=14.9</text>
<text x="20" y="212" font-size="12" font-family="monospace" fill="#24292f">ampere_fp16_s16816gemm_fp16_64x64_ldg8_f2...</text>
<rect x="300" y="200" width="44" height="16" fill="#8250df" rx="4" />
<text x="740" y="212" font-size="11" font-family="monospace" fill="#57606a">total_us=640.6 count=32 avg_us=20.0</text>
<text x="20" y="240" font-size="12" font-family="monospace" fill="#24292f">triton_poi_fused_convolution_silu_46</text>
<rect x="300" y="228" width="31" height="16" fill="#8250df" rx="4" />
<text x="740" y="240" font-size="11" font-family="monospace" fill="#57606a">total_us=457.2 count=11 avg_us=41.6</text>
<text x="20" y="268" font-size="12" font-family="monospace" fill="#24292f">fmha_cutlassF_f16_aligned_64x64_rf_sm80(P...</text>
<rect x="300" y="256" width="23" height="16" fill="#8250df" rx="4" />
<text x="740" y="268" font-size="11" font-family="monospace" fill="#57606a">total_us=347.7 count=44 avg_us=7.9</text>
<text x="20" y="296" font-size="12" font-family="monospace" fill="#24292f">void cutlass::Kernel2&lt;cutlass_80_wmma_ten...</text>
<rect x="300" y="284" width="22" height="16" fill="#8250df" rx="4" />
<text x="740" y="296" font-size="11" font-family="monospace" fill="#57606a">total_us=328.3 count=25 avg_us=13.1</text>
<text x="20" y="324" font-size="12" font-family="monospace" fill="#24292f">void at::native::(anonymous namespace)::v...</text>
<rect x="300" y="312" width="18" height="16" fill="#8250df" rx="4" />
<text x="740" y="324" font-size="11" font-family="monospace" fill="#57606a">total_us=273.9 count=90 avg_us=3.0</text>
</g>
</svg>