<svg xmlns="http://www.w3.org/2000/svg" width="1600" height="830" viewBox="0 0 1600 830">
<rect width="100%" height="100%" fill="#f6f8fa" />
<text x="30" y="24" font-size="20" font-family="monospace" font-weight="bold" fill="#1f2328">Leaf Event Activity Summary (top 10)</text>
<g transform="translate(30,50)">
<rect x="0" y="0" width="760" height="360" rx="10" fill="#ffffff" stroke="#d0d7de" />
<text x="20" y="28" font-size="18" font-family="monospace" font-weight="bold" fill="#1f2328">Leaf CPU Top 10 by Count</text>
<text x="20" y="72" font-size="12" font-family="monospace" fill="#24292f">aten::view</text>
<rect x="300" y="60" width="430" height="16" fill="#0969da" rx="4" />
<text x="740" y="72" font-size="11" font-family="monospace" fill="#57606a">count=10036 total_us=64736.9 avg_us=6.5</text>
<text x="20" y="100" font-size="12" font-family="monospace" fill="#24292f">aten::as_strided</text>
<rect x="300" y="88" width="407" height="16" fill="#0969da" rx="4" />
<text x="740" y="100" font-size="11" font-family="monospace" fill="#57606a">count=9510 total_us=65769.8 avg_us=6.9</text>
<text x="20" y="128" font-size="12" font-family="monospace" fill="#24292f">cudaLaunchKernel</text>
<rect x="300" y="116" width="285" height="16" fill="#0969da" rx="4" />
<text x="740" y="128" font-size="11" font-family="monospace" fill="#57606a">count=6668 total_us=29572.7 avg_us=4.4</text>
<text x="20" y="156" font-size="12" font-family="monospace" fill="#24292f">aten::empty</text>
<rect x="300" y="144" width="283" height="16" fill="#0969da" rx="4" />
<text x="740" y="156" font-size="11" font-family="monospace" fill="#57606a">count=6617 total_us=59286.1 avg_us=9.0</text>
<text x="20" y="184" font-size="12" font-family="monospace" fill="#24292f">cudaDeviceGetAttribute</text>
<rect x="300" y="172" width="140" height="16" fill="#0969da" rx="4" />
<text x="740" y="184" font-size="11" font-family="monospace" fill="#57606a">count=3273 total_us=976.0 avg_us=0.3</text>
<text x="20" y="212" font-size="12" font-family="monospace" fill="#24292f">cuLaunchKernel</text>
<rect x="300" y="200" width="140" height="16" fill="#0969da" rx="4" />
<text x="740" y="212" font-size="11" font-family="monospace" fill="#57606a">count=3272 total_us=18887.6 avg_us=5.8</text>
<text x="20" y="240" font-size="12" font-family="monospace" fill="#24292f">cudaMemsetAsync</text>
<rect x="300" y="228" width="98" height="16" fill="#0969da" rx="4" />
<text x="740" y="240" font-size="11" font-family="monospace" fill="#57606a">count=2288 total_us=529.1 avg_us=0.2</text>
<text x="20" y="268" font-size="12" font-family="monospace" fill="#24292f">aten::_unsafe_view</text>
<rect x="300" y="256" width="73" height="16" fill="#0969da" rx="4" />
<text x="740" y="268" font-size="11" font-family="monospace" fill="#57606a">count=1724 total_us=11456.2 avg_us=6.6</text>
<text x="20" y="296" font-size="12" font-family="monospace" fill="#24292f">aten::dropout</text>
<rect x="300" y="284" width="38" height="16" fill="#0969da" rx="4" />
<text x="740" y="296" font-size="11" font-family="monospace" fill="#57606a">count=908 total_us=6976.0 avg_us=7.7</text>
<text x="20" y="324" font-size="12" font-family="monospace" fill="#24292f">aten::to</text>
<rect x="300" y="312" width="26" height="16" fill="#0969da" rx="4" />
<text x="740" y="324" font-size="11" font-family="monospace" fill="#57606a">count=628 total_us=4569.9 avg_us=7.3</text>
</g>
<g transform="translate(810,50)">
<rect x="0" y="0" width="760" height="360" rx="10" fill="#ffffff" stroke="#d0d7de" />
<text x="20" y="28" font-size="18" font-family="monospace" font-weight="bold" fill="#1f2328">Leaf CPU Top 10 by Total Time (us)</text>
<text x="20" y="72" font-size="12" font-family="monospace" fill="#24292f">aten::as_strided</text>
<rect x="300" y="60" width="430" height="16" fill="#1a7f37" rx="4" />
<text x="740" y="72" font-size="11" font-family="monospace" fill="#57606a">total_us=65769.8 count=9510 avg_us=6.9</text>
<text x="20" y="100" font-size="12" font-family="monospace" fill="#24292f">aten::view</text>
<rect x="300" y="88" width="423" height="16" fill="#1a7f37" rx="4" />
<text x="740" y="100" font-size="11" font-family="monospace" fill="#57606a">total_us=64736.9 count=10036 avg_us=6.5</text>
<text x="20" y="128" font-size="12" font-family="monospace" fill="#24292f">aten::empty</text>
<rect x="300" y="116" width="387" height="16" fill="#1a7f37" rx="4" />
<text x="740" y="128" font-size="11" font-family="monospace" fill="#57606a">total_us=59286.1 count=6617 avg_us=9.0</text>
<text x="20" y="156" font-size="12" font-family="monospace" fill="#24292f">cudaLaunchKernel</text>
<rect x="300" y="144" width="193" height="16" fill="#1a7f37" rx="4" />
<text x="740" y="156" font-size="11" font-family="monospace" fill="#57606a">total_us=29572.7 count=6668 avg_us=4.4</text>
<text x="20" y="184" font-size="12" font-family="monospace" fill="#24292f">cuLaunchKernel</text>
<rect x="300" y="172" width="123" height="16" fill="#1a7f37" rx="4" />
<text x="740" y="184" font-size="11" font-family="monospace" fill="#57606a">total_us=18887.6 count=3272 avg_us=5.8</text>
<text x="20" y="212" font-size="12" font-family="monospace" fill="#24292f">aten::_unsafe_view</text>
<rect x="300" y="200" width="74" height="16" fill="#1a7f37" rx="4" />
<text x="740" y="212" font-size="11" font-family="monospace" fill="#57606a">total_us=11456.2 count=1724 avg_us=6.6</text>
<text x="20" y="240" font-size="12" font-family="monospace" fill="#24292f">aten::dropout</text>
<rect x="300" y="228" width="45" height="16" fill="#1a7f37" rx="4" />
<text x="740" y="240" font-size="11" font-family="monospace" fill="#57606a">total_us=6976.0 count=908 avg_us=7.7</text>
<text x="20" y="268" font-size="12" font-family="monospace" fill="#24292f">aten::empty_strided</text>
<rect x="300" y="256" width="45" height="16" fill="#1a7f37" rx="4" />
<text x="740" y="268" font-size="11" font-family="monospace" fill="#57606a">total_us=6927.4 count=595 avg_us=11.6</text>
<text x="20" y="296" font-size="12" font-family="monospace" fill="#24292f">aten::to</text>
<rect x="300" y="284" width="29" height="16" fill="#1a7f37" rx="4" />
<text x="740" y="296" font-size="11" font-family="monospace" fill="#57606a">total_us=4569.9 count=628 avg_us=7.3</text>
<text x="20" y="324" font-size="12" font-family="monospace" fill="#24292f">aten::resize_</text>
<rect x="300" y="312" width="11" height="16" fill="#1a7f37" rx="4" />
<text x="740" y="324" font-size="11" font-family="monospace" fill="#57606a">total_us=1749.5 count=224 avg_us=7.8</text>
</g>
<g transform="translate(30,430)">
<rect x="0" y="0" width="760" height="360" rx="10" fill="#ffffff" stroke="#d0d7de" />
<text x="20" y="28" font-size="18" font-family="monospace" font-weight="bold" fill="#1f2328">True GPU Top 10 by Count</text>
<text x="20" y="72" font-size="12" font-family="monospace" fill="#24292f">void cutlass::Kernel2&lt;cutlass_80_wmma_ten...</text>
<rect x="300" y="60" width="430" height="16" fill="#bf8700" rx="4" />
<text x="740" y="72" font-size="11" font-family="monospace" fill="#57606a">count=2204 total_us=24170.1 avg_us=11.0</text>
<text x="20" y="100" font-size="12" font-family="monospace" fill="#24292f">void at::native::vectorized_elementwise_k...</text>
<rect x="300" y="88" width="204" height="16" fill="#bf8700" rx="4" />
<text x="740" y="100" font-size="11" font-family="monospace" fill="#57606a">count=1046 total_us=1084.5 avg_us=1.0</text>
<text x="20" y="128" font-size="12" font-family="monospace" fill="#24292f">void at::native::(anonymous namespace)::v...</text>
<rect x="300" y="116" width="181" height="16" fill="#bf8700" rx="4" />
<text x="740" y="128" font-size="11" font-family="monospace" fill="#57606a">count=930 total_us=2679.1 avg_us=2.9</text>
<text x="20" y="156" font-size="12" font-family="monospace" fill="#24292f">void cutlass::Kernel2&lt;cutlass_80_wmma_ten...</text>
<rect x="300" y="144" width="151" height="16" fill="#bf8700" rx="4" />
<text x="740" y="156" font-size="11" font-family="monospace" fill="#57606a">count=776 total_us=6460.2 avg_us=8.3</text>
<text x="20" y="184" font-size="12" font-family="monospace" fill="#24292f">void cublasLt::splitKreduce_kernel&lt;32, 16...</text>
<rect x="300" y="172" width="138" height="16" fill="#bf8700" rx="4" />
<text x="740" y="184" font-size="11" font-family="monospace" fill="#57606a">count=712 total_us=1001.0 avg_us=1.4</text>
<text x="20" y="212" font-size="12" font-family="monospace" fill="#24292f">void at::native::vectorized_elementwise_k...</text>
<rect x="300" y="200" width="123" height="16" fill="#bf8700" rx="4" />
<text x="740" y="212" font-size="11" font-family="monospace" fill="#57606a">count=632 total_us=629.7 avg_us=1.0</text>
<text x="20" y="240" font-size="12" font-family="monospace" fill="#24292f">void pytorch_flash::flash_fwd_kernel&lt;Flas...</text>
<rect x="300" y="228" width="109" height="16" fill="#bf8700" rx="4" />
<text x="740" y="240" font-size="11" font-family="monospace" fill="#57606a">count=560 total_us=3866.8 avg_us=6.9</text>
<text x="20" y="268" font-size="12" font-family="monospace" fill="#24292f">void cublasLt::splitKreduce_kernel&lt;32, 16...</text>
<rect x="300" y="256" width="63" height="16" fill="#bf8700" rx="4" />
<text x="740" y="268" font-size="11" font-family="monospace" fill="#57606a">count=324 total_us=574.3 avg_us=1.8</text>
<text x="20" y="296" font-size="12" font-family="monospace" fill="#24292f">void at::native::elementwise_kernel&lt;128, ...</text>
<rect x="300" y="284" width="56" height="16" fill="#bf8700" rx="4" />
<text x="740" y="296" font-size="11" font-family="monospace" fill="#57606a">count=292 total_us=499.2 avg_us=1.7</text>
<text x="20" y="324" font-size="12" font-family="monospace" fill="#24292f">void at::native::elementwise_kernel&lt;128, ...</text>
<rect x="300" y="312" width="54" height="16" fill="#bf8700" rx="4" />
<text x="740" y="324" font-size="11" font-family="monospace" fill="#57606a">count=280 total_us=552.1 avg_us=2.0</text>
</g>
<g transform="translate(810,430)">
<rect x="0" y="0" width="760" height="360" rx="10" fill="#ffffff" stroke="#d0d7de" />
<text x="20" y="28" font-size="18" font-family="monospace" font-weight="bold" fill="#1f2328">True GPU Top 10 by Total Time (us)</text>
<text x="20" y="72" font-size="12" font-family="monospace" fill="#24292f">void cutlass::Kernel2&lt;cutlass_80_wmma_ten...</text>
<rect x="300" y="60" width="430" height="16" fill="#8250df" rx="4" />
<text x="740" y="72" font-size="11" font-family="monospace" fill="#57606a">total_us=24170.1 count=2204 avg_us=11.0</text>
<text x="20" y="100" font-size="12" font-family="monospace" fill="#24292f">void cutlass::Kernel2&lt;cutlass_80_wmma_ten...</text>
<rect x="300" y="88" width="114" height="16" fill="#8250df" rx="4" />
<text x="740" y="100" font-size="11" font-family="monospace" fill="#57606a">total_us=6460.2 count=776 avg_us=8.3</text>
<text x="20" y="128" font-size="12" font-family="monospace" fill="#24292f">void pytorch_flash::flash_fwd_kernel&lt;Flas...</text>
<rect x="300" y="116" width="68" height="16" fill="#8250df" rx="4" />
<text x="740" y="128" font-size="11" font-family="monospace" fill="#57606a">total_us=3866.8 count=560 avg_us=6.9</text>
<text x="20" y="156" font-size="12" font-family="monospace" fill="#24292f">void at::native::(anonymous namespace)::v...</text>
<rect x="300" y="144" width="47" height="16" fill="#8250df" rx="4" />
<text x="740" y="156" font-size="11" font-family="monospace" fill="#57606a">total_us=2679.1 count=930 avg_us=2.9</text>
<text x="20" y="184" font-size="12" font-family="monospace" fill="#24292f">void cutlass::Kernel2&lt;cutlass_80_wmma_ten...</text>
<rect x="300" y="172" width="46" height="16" fill="#8250df" rx="4" />
<text x="740" y="184" font-size="11" font-family="monospace" fill="#57606a">total_us=2594.8 count=100 avg_us=25.9</text>
<text x="20" y="212" font-size="12" font-family="monospace" fill="#24292f">void cutlass::Kernel2&lt;cutlass_80_wmma_ten...</text>
<rect x="300" y="200" width="22" height="16" fill="#8250df" rx="4" />
<text x="740" y="212" font-size="11" font-family="monospace" fill="#57606a">total_us=1274.0 count=96 avg_us=13.3</text>
<text x="20" y="240" font-size="12" font-family="monospace" fill="#24292f">void at::native::vectorized_elementwise_k...</text>
<rect x="300" y="228" width="19" height="16" fill="#8250df" rx="4" />
<text x="740" y="240" font-size="11" font-family="monospace" fill="#57606a">total_us=1084.5 count=1046 avg_us=1.0</text>
<text x="20" y="268" font-size="12" font-family="monospace" fill="#24292f">void cublasLt::splitKreduce_kernel&lt;32, 16...</text>
<rect x="300" y="256" width="17" height="16" fill="#8250df" rx="4" />
<text x="740" y="268" font-size="11" font-family="monospace" fill="#57606a">total_us=1001.0 count=712 avg_us=1.4</text>
<text x="20" y="296" font-size="12" font-family="monospace" fill="#24292f">void at::native::vectorized_elementwise_k...</text>
<rect x="300" y="284" width="11" height="16" fill="#8250df" rx="4" />
<text x="740" y="296" font-size="11" font-family="monospace" fill="#57606a">total_us=629.7 count=632 avg_us=1.0</text>
<text x="20" y="324" font-size="12" font-family="monospace" fill="#24292f">ampere_fp16_s16816gemm_fp16_64x64_ldg8_f2...</text>
<rect x="300" y="312" width="11" height="16" fill="#8250df" rx="4" />
<text x="740" y="324" font-size="11" font-family="monospace" fill="#57606a">total_us=625.3 count=32 avg_us=19.5</text>
</g>
</svg>