<svg xmlns="http://www.w3.org/2000/svg" width="1600" height="830" viewBox="0 0 1600 830">
<rect width="100%" height="100%" fill="#f6f8fa" />
<text x="30" y="24" font-size="20" font-family="monospace" font-weight="bold" fill="#1f2328">Leaf Event Activity Summary (top 10)</text>
<g transform="translate(30,50)">
<rect x="0" y="0" width="760" height="360" rx="10" fill="#ffffff" stroke="#d0d7de" />
<text x="20" y="28" font-size="18" font-family="monospace" font-weight="bold" fill="#1f2328">Leaf CPU Top 10 by Count</text>
<text x="20" y="72" font-size="12" font-family="monospace" fill="#24292f">cuLaunchKernel</text>
<rect x="300" y="60" width="430" height="16" fill="#0969da" rx="4" />
<text x="740" y="72" font-size="11" font-family="monospace" fill="#57606a">count=9808 total_us=24149.0 avg_us=2.5</text>
<text x="20" y="100" font-size="12" font-family="monospace" fill="#24292f">aten::empty</text>
<rect x="300" y="88" width="290" height="16" fill="#0969da" rx="4" />
<text x="740" y="100" font-size="11" font-family="monospace" fill="#57606a">count=6621 total_us=13093.4 avg_us=2.0</text>
<text x="20" y="128" font-size="12" font-family="monospace" fill="#24292f">aten::as_strided</text>
<rect x="300" y="116" width="269" height="16" fill="#0969da" rx="4" />
<text x="740" y="128" font-size="11" font-family="monospace" fill="#57606a">count=6146 total_us=1944.9 avg_us=0.3</text>
<text x="20" y="156" font-size="12" font-family="monospace" fill="#24292f">cudaLaunchKernel</text>
<rect x="300" y="144" width="267" height="16" fill="#0969da" rx="4" />
<text x="740" y="156" font-size="11" font-family="monospace" fill="#57606a">count=6104 total_us=16195.9 avg_us=2.7</text>
<text x="20" y="184" font-size="12" font-family="monospace" fill="#24292f">cudaDeviceGetAttribute</text>
<rect x="300" y="172" width="239" height="16" fill="#0969da" rx="4" />
<text x="740" y="184" font-size="11" font-family="monospace" fill="#57606a">count=5473 total_us=826.3 avg_us=0.2</text>
<text x="20" y="212" font-size="12" font-family="monospace" fill="#24292f">cudaMemsetAsync</text>
<rect x="300" y="200" width="196" height="16" fill="#0969da" rx="4" />
<text x="740" y="212" font-size="11" font-family="monospace" fill="#57606a">count=4476 total_us=1363.8 avg_us=0.3</text>
<text x="20" y="240" font-size="12" font-family="monospace" fill="#24292f">aten::view</text>
<rect x="300" y="228" width="57" height="16" fill="#0969da" rx="4" />
<text x="740" y="240" font-size="11" font-family="monospace" fill="#57606a">count=1320 total_us=740.0 avg_us=0.6</text>
<text x="20" y="268" font-size="12" font-family="monospace" fill="#24292f">aten::empty_strided</text>
<rect x="300" y="256" width="50" height="16" fill="#0969da" rx="4" />
<text x="740" y="268" font-size="11" font-family="monospace" fill="#57606a">count=1161 total_us=4032.5 avg_us=3.5</text>
<text x="20" y="296" font-size="12" font-family="monospace" fill="#24292f">cudaFuncSetAttribute</text>
<rect x="300" y="284" width="49" height="16" fill="#0969da" rx="4" />
<text x="740" y="296" font-size="11" font-family="monospace" fill="#57606a">count=1120 total_us=1061.4 avg_us=0.9</text>
<text x="20" y="324" font-size="12" font-family="monospace" fill="#24292f">aten::resize_</text>
<rect x="300" y="312" width="18" height="16" fill="#0969da" rx="4" />
<text x="740" y="324" font-size="11" font-family="monospace" fill="#57606a">count=420 total_us=769.9 avg_us=1.8</text>
</g>
<g transform="translate(810,50)">
<rect x="0" y="0" width="760" height="360" rx="10" fill="#ffffff" stroke="#d0d7de" />
<text x="20" y="28" font-size="18" font-family="monospace" font-weight="bold" fill="#1f2328">Leaf CPU Top 10 by Total Time (us)</text>
<text x="20" y="72" font-size="12" font-family="monospace" fill="#24292f">cuLaunchKernel</text>
<rect x="300" y="60" width="430" height="16" fill="#1a7f37" rx="4" />
<text x="740" y="72" font-size="11" font-family="monospace" fill="#57606a">total_us=24149.0 count=9808 avg_us=2.5</text>
<text x="20" y="100" font-size="12" font-family="monospace" fill="#24292f">cudaLaunchKernel</text>
<rect x="300" y="88" width="288" height="16" fill="#1a7f37" rx="4" />
<text x="740" y="100" font-size="11" font-family="monospace" fill="#57606a">total_us=16195.9 count=6104 avg_us=2.7</text>
<text x="20" y="128" font-size="12" font-family="monospace" fill="#24292f">aten::empty</text>
<rect x="300" y="116" width="233" height="16" fill="#1a7f37" rx="4" />
<text x="740" y="128" font-size="11" font-family="monospace" fill="#57606a">total_us=13093.4 count=6621 avg_us=2.0</text>
<text x="20" y="156" font-size="12" font-family="monospace" fill="#24292f">aten::empty_strided</text>
<rect x="300" y="144" width="71" height="16" fill="#1a7f37" rx="4" />
<text x="740" y="156" font-size="11" font-family="monospace" fill="#57606a">total_us=4032.5 count=1161 avg_us=3.5</text>
<text x="20" y="184" font-size="12" font-family="monospace" fill="#24292f">TorchDynamo Cache Lookup</text>
<rect x="300" y="172" width="48" height="16" fill="#1a7f37" rx="4" />
<text x="740" y="184" font-size="11" font-family="monospace" fill="#57606a">total_us=2739.8 count=8 avg_us=342.5</text>
<text x="20" y="212" font-size="12" font-family="monospace" fill="#24292f">aten::as_strided</text>
<rect x="300" y="200" width="34" height="16" fill="#1a7f37" rx="4" />
<text x="740" y="212" font-size="11" font-family="monospace" fill="#57606a">total_us=1944.9 count=6146 avg_us=0.3</text>
<text x="20" y="240" font-size="12" font-family="monospace" fill="#24292f">cudaMemsetAsync</text>
<rect x="300" y="228" width="24" height="16" fill="#1a7f37" rx="4" />
<text x="740" y="240" font-size="11" font-family="monospace" fill="#57606a">total_us=1363.8 count=4476 avg_us=0.3</text>
<text x="20" y="268" font-size="12" font-family="monospace" fill="#24292f">cudaFuncSetAttribute</text>
<rect x="300" y="256" width="18" height="16" fill="#1a7f37" rx="4" />
<text x="740" y="268" font-size="11" font-family="monospace" fill="#57606a">total_us=1061.4 count=1120 avg_us=0.9</text>
<text x="20" y="296" font-size="12" font-family="monospace" fill="#24292f">Pregraph bytecode</text>
<rect x="300" y="284" width="18" height="16" fill="#1a7f37" rx="4" />
<text x="740" y="296" font-size="11" font-family="monospace" fill="#57606a">total_us=1036.9 count=8 avg_us=129.6</text>
<text x="20" y="324" font-size="12" font-family="monospace" fill="#24292f">cudaDeviceGetAttribute</text>
<rect x="300" y="312" width="14" height="16" fill="#1a7f37" rx="4" />
<text x="740" y="324" font-size="11" font-family="monospace" fill="#57606a">total_us=826.3 count=5473 avg_us=0.2</text>
</g>
<g transform="translate(30,430)">
<rect x="0" y="0" width="760" height="360" rx="10" fill="#ffffff" stroke="#d0d7de" />
<text x="20" y="28" font-size="18" font-family="monospace" font-weight="bold" fill="#1f2328">True GPU Top 10 by Count</text>
<text x="20" y="72" font-size="12" font-family="monospace" fill="#24292f">void cutlass::Kernel2&lt;cutlass_80_wmma_ten...</text>
<rect x="300" y="60" width="430" height="16" fill="#bf8700" rx="4" />
<text x="740" y="72" font-size="11" font-family="monospace" fill="#57606a">count=2984 total_us=38332.8 avg_us=12.8</text>
<text x="20" y="100" font-size="12" font-family="monospace" fill="#24292f">void cutlass::Kernel2&lt;cutlass_80_wmma_ten...</text>
<rect x="300" y="88" width="186" height="16" fill="#bf8700" rx="4" />
<text x="740" y="100" font-size="11" font-family="monospace" fill="#57606a">count=1296 total_us=10895.2 avg_us=8.4</text>
<text x="20" y="128" font-size="12" font-family="monospace" fill="#24292f">void cublasLt::splitKreduce_kernel&lt;32, 16...</text>
<rect x="300" y="116" width="183" height="16" fill="#bf8700" rx="4" />
<text x="740" y="128" font-size="11" font-family="monospace" fill="#57606a">count=1272 total_us=1909.3 avg_us=1.5</text>
<text x="20" y="156" font-size="12" font-family="monospace" fill="#24292f">void at::native::elementwise_kernel&lt;128, ...</text>
<rect x="300" y="144" width="111" height="16" fill="#bf8700" rx="4" />
<text x="740" y="156" font-size="11" font-family="monospace" fill="#57606a">count=772 total_us=12900.4 avg_us=16.7</text>
<text x="20" y="184" font-size="12" font-family="monospace" fill="#24292f">void pytorch_flash::flash_fwd_kernel&lt;Flas...</text>
<rect x="300" y="172" width="80" height="16" fill="#bf8700" rx="4" />
<text x="740" y="184" font-size="11" font-family="monospace" fill="#57606a">count=560 total_us=4611.6 avg_us=8.2</text>
<text x="20" y="212" font-size="12" font-family="monospace" fill="#24292f">void cublasLt::splitKreduce_kernel&lt;32, 16...</text>
<rect x="300" y="200" width="75" height="16" fill="#bf8700" rx="4" />
<text x="740" y="212" font-size="11" font-family="monospace" fill="#57606a">count=524 total_us=1457.3 avg_us=2.8</text>
<text x="20" y="240" font-size="12" font-family="monospace" fill="#24292f">void cutlass::Kernel2&lt;cutlass_80_wmma_ten...</text>
<rect x="300" y="228" width="74" height="16" fill="#bf8700" rx="4" />
<text x="740" y="240" font-size="11" font-family="monospace" fill="#57606a">count=520 total_us=6866.1 avg_us=13.2</text>
<text x="20" y="268" font-size="12" font-family="monospace" fill="#24292f">void cutlass::Kernel2&lt;cutlass_80_tensorop...</text>
<rect x="300" y="256" width="69" height="16" fill="#bf8700" rx="4" />
<text x="740" y="268" font-size="11" font-family="monospace" fill="#57606a">count=480 total_us=24809.8 avg_us=51.7</text>
<text x="20" y="296" font-size="12" font-family="monospace" fill="#24292f">ampere_fp16_s16816gemm_fp16_128x64_ldg8_f...</text>
<rect x="300" y="284" width="69" height="16" fill="#bf8700" rx="4" />
<text x="740" y="296" font-size="11" font-family="monospace" fill="#57606a">count=480 total_us=11749.0 avg_us=24.5</text>
<text x="20" y="324" font-size="12" font-family="monospace" fill="#24292f">void pytorch_flash::flash_fwd_kernel&lt;Flas...</text>
<rect x="300" y="312" width="69" height="16" fill="#bf8700" rx="4" />
<text x="740" y="324" font-size="11" font-family="monospace" fill="#57606a">count=480 total_us=4886.8 avg_us=10.2</text>
</g>
<g transform="translate(810,430)">
<rect x="0" y="0" width="760" height="360" rx="10" fill="#ffffff" stroke="#d0d7de" />
<text x="20" y="28" font-size="18" font-family="monospace" font-weight="bold" fill="#1f2328">True GPU Top 10 by Total Time (us)</text>
<text x="20" y="72" font-size="12" font-family="monospace" fill="#24292f">void cutlass::Kernel2&lt;cutlass_80_wmma_ten...</text>
<rect x="300" y="60" width="430" height="16" fill="#8250df" rx="4" />
<text x="740" y="72" font-size="11" font-family="monospace" fill="#57606a">total_us=38332.8 count=2984 avg_us=12.8</text>
<text x="20" y="100" font-size="12" font-family="monospace" fill="#24292f">void cutlass::Kernel2&lt;cutlass_80_tensorop...</text>
<rect x="300" y="88" width="278" height="16" fill="#8250df" rx="4" />
<text x="740" y="100" font-size="11" font-family="monospace" fill="#57606a">total_us=24809.8 count=480 avg_us=51.7</text>
<text x="20" y="128" font-size="12" font-family="monospace" fill="#24292f">void at::native::elementwise_kernel&lt;128, ...</text>
<rect x="300" y="116" width="144" height="16" fill="#8250df" rx="4" />
<text x="740" y="128" font-size="11" font-family="monospace" fill="#57606a">total_us=12900.4 count=772 avg_us=16.7</text>
<text x="20" y="156" font-size="12" font-family="monospace" fill="#24292f">ampere_fp16_s16816gemm_fp16_128x64_ldg8_f...</text>
<rect x="300" y="144" width="131" height="16" fill="#8250df" rx="4" />
<text x="740" y="156" font-size="11" font-family="monospace" fill="#57606a">total_us=11749.0 count=480 avg_us=24.5</text>
<text x="20" y="184" font-size="12" font-family="monospace" fill="#24292f">void cutlass::Kernel2&lt;cutlass_80_wmma_ten...</text>
<rect x="300" y="172" width="122" height="16" fill="#8250df" rx="4" />
<text x="740" y="184" font-size="11" font-family="monospace" fill="#57606a">total_us=10895.2 count=1296 avg_us=8.4</text>
<text x="20" y="212" font-size="12" font-family="monospace" fill="#24292f">void cutlass::Kernel2&lt;cutlass_80_tensorop...</text>
<rect x="300" y="200" width="104" height="16" fill="#8250df" rx="4" />
<text x="740" y="212" font-size="11" font-family="monospace" fill="#57606a">total_us=9285.2 count=168 avg_us=55.3</text>
<text x="20" y="240" font-size="12" font-family="monospace" fill="#24292f">ampere_fp16_s1688gemm_fp16_64x128_sliced1...</text>
<rect x="300" y="228" width="78" height="16" fill="#8250df" rx="4" />
<text x="740" y="240" font-size="11" font-family="monospace" fill="#57606a">total_us=7014.4 count=160 avg_us=43.8</text>
<text x="20" y="268" font-size="12" font-family="monospace" fill="#24292f">void cutlass::Kernel2&lt;cutlass_80_wmma_ten...</text>
<rect x="300" y="256" width="77" height="16" fill="#8250df" rx="4" />
<text x="740" y="268" font-size="11" font-family="monospace" fill="#57606a">total_us=6866.1 count=520 avg_us=13.2</text>
<text x="20" y="296" font-size="12" font-family="monospace" fill="#24292f">ampere_fp16_s16816gemm_fp16_128x64_ldg8_f...</text>
<rect x="300" y="284" width="70" height="16" fill="#8250df" rx="4" />
<text x="740" y="296" font-size="11" font-family="monospace" fill="#57606a">total_us=6288.3 count=104 avg_us=60.5</text>
<text x="20" y="324" font-size="12" font-family="monospace" fill="#24292f">void at::native::im2col_kernel&lt;c10::Half&gt;...</text>
<rect x="300" y="312" width="70" height="16" fill="#8250df" rx="4" />
<text x="740" y="324" font-size="11" font-family="monospace" fill="#57606a">total_us=6254.3 count=320 avg_us=19.5</text>
</g>
</svg>